<svg width="310" height="302" viewBox="0 0 310 302" fill="none" xmlns="http://www.w3.org/2000/svg">
<g clip-path="url(#clip0_18_632)">
<path d="M119.691 274.686L111.619 282.118L118.034 271.353C112.98 262.187 104.713 254.265 104.713 254.265C104.713 254.265 87.5623 270.697 87.5623 283.613C87.5623 296.53 95.2408 301.04 104.713 301.04C114.185 301.04 121.863 296.53 121.863 283.613C121.863 280.738 121.013 277.689 119.691 274.686Z" fill="#ABABAB"/>
<path d="M109.543 282.521V283.157C109.505 290.558 108.257 296.332 105.808 300.398C105.773 300.458 105.735 300.514 105.7 300.574L105.426 300.407L105.165 300.243C107.882 295.853 108.843 289.647 108.877 283.192C108.881 282.984 108.884 282.773 108.881 282.561C108.871 279.829 108.704 277.065 108.436 274.379C108.417 274.171 108.395 273.96 108.373 273.749C108.001 270.206 107.465 266.821 106.917 263.881C106.879 263.673 106.838 263.465 106.797 263.26C105.849 258.286 104.881 254.684 104.66 253.886C104.635 253.788 104.619 253.735 104.616 253.722L104.916 253.637L104.919 253.634L105.221 253.549C105.225 253.562 105.278 253.741 105.366 254.075C105.704 255.323 106.58 258.712 107.44 263.181C107.478 263.383 107.519 263.591 107.557 263.799C108.004 266.185 108.443 268.851 108.789 271.65C108.877 272.353 108.956 273.046 109.026 273.73C109.051 273.941 109.073 274.152 109.092 274.36C109.382 277.263 109.532 279.983 109.543 282.521Z" fill="white"/>
<path d="M107.44 263.181C107.229 263.209 107.015 263.238 106.797 263.26C106.207 263.321 105.613 263.351 105.02 263.351C102.489 263.354 99.9906 262.79 97.7074 261.7C97.575 261.867 97.4427 262.034 97.3071 262.204C99.709 263.376 102.347 263.984 105.02 263.981C105.653 263.981 106.287 263.948 106.917 263.881C107.131 263.859 107.346 263.83 107.557 263.799C109.3 263.549 110.995 263.035 112.584 262.276C112.448 262.103 112.316 261.933 112.187 261.766C110.683 262.469 109.084 262.946 107.44 263.181Z" fill="white"/>
<path d="M109.026 273.73C108.808 273.743 108.591 273.749 108.373 273.749C108.307 273.752 108.238 273.752 108.171 273.752C105.43 273.752 102.729 273.089 100.299 271.82C97.8685 270.551 95.7814 268.712 94.2152 266.462C94.0891 266.648 93.963 266.834 93.8401 267.023C95.4725 269.3 97.624 271.155 100.116 272.435C102.608 273.715 105.37 274.382 108.171 274.383C108.26 274.383 108.348 274.383 108.436 274.379C108.657 274.376 108.874 274.37 109.092 274.36C112.457 274.188 115.701 273.05 118.437 271.083C118.336 270.897 118.235 270.711 118.131 270.525C115.473 272.456 112.308 273.57 109.026 273.73Z" fill="white"/>
<path d="M109.542 282.52C109.322 282.539 109.101 282.552 108.881 282.561C108.644 282.571 108.408 282.577 108.171 282.577C104.487 282.573 100.904 281.376 97.9571 279.164C95.0105 276.953 92.8595 273.846 91.8261 270.31C91.6842 270.566 91.5424 270.818 91.4069 271.073C92.5713 274.601 94.8178 277.672 97.8273 279.851C100.837 282.029 104.456 283.204 108.171 283.208C108.408 283.208 108.644 283.204 108.877 283.192C109.101 283.186 109.322 283.173 109.542 283.157C113.999 282.809 118.156 280.779 121.173 277.481C121.106 277.247 121.031 277.017 120.955 276.784C118.042 280.108 113.948 282.165 109.542 282.52Z" fill="white"/>
<path d="M309.551 16.1506H0.448663C0.329948 16.1501 0.216244 16.1027 0.132445 16.0186C0.0486454 15.9345 0.00158691 15.8206 0.00158691 15.7019C0.00158691 15.5832 0.0486454 15.4693 0.132445 15.3852C0.216244 15.3012 0.329948 15.2537 0.448663 15.2533H309.551C309.67 15.2537 309.784 15.3012 309.868 15.3852C309.951 15.4693 309.999 15.5832 309.999 15.7019C309.999 15.8206 309.951 15.9345 309.868 16.0186C309.784 16.1027 309.67 16.1501 309.551 16.1506Z" fill="#ABABAB"/>
<path d="M10.5462 9.86975C13.2717 9.86975 15.4811 7.66033 15.4811 4.93487C15.4811 2.20942 13.2717 0 10.5462 0C7.82075 0 5.61133 2.20942 5.61133 4.93487C5.61133 7.66033 7.82075 9.86975 10.5462 9.86975Z" fill="#839F9F"/>
<path d="M27.5939 9.86975C30.3194 9.86975 32.5288 7.66033 32.5288 4.93487C32.5288 2.20942 30.3194 0 27.5939 0C24.8685 0 22.6591 2.20942 22.6591 4.93487C22.6591 7.66033 24.8685 9.86975 27.5939 9.86975Z" fill="#839F9F"/>
<path d="M44.6418 9.86975C47.3672 9.86975 49.5767 7.66033 49.5767 4.93487C49.5767 2.20942 47.3672 0 44.6418 0C41.9163 0 39.7069 2.20942 39.7069 4.93487C39.7069 7.66033 41.9163 9.86975 44.6418 9.86975Z" fill="#839F9F"/>
<path d="M299.337 3.0185H287.224C286.987 3.01768 286.76 2.92279 286.592 2.75461C286.424 2.58643 286.33 2.35868 286.33 2.12125C286.33 1.88382 286.424 1.65607 286.592 1.48789C286.76 1.31971 286.987 1.22482 287.224 1.224H299.337C299.455 1.2236 299.572 1.2465 299.682 1.29141C299.791 1.33632 299.89 1.40235 299.974 1.4857C300.057 1.56906 300.124 1.66811 300.169 1.77717C300.214 1.88623 300.238 2.00316 300.238 2.12125C300.238 2.23934 300.214 2.35627 300.169 2.46533C300.124 2.57439 300.057 2.67344 299.974 2.7568C299.89 2.84016 299.791 2.90619 299.682 2.95109C299.572 2.996 299.455 3.01891 299.337 3.0185Z" fill="#839F9F"/>
<path d="M299.337 6.38312H287.224C286.987 6.3823 286.76 6.28741 286.592 6.11923C286.424 5.95106 286.33 5.7233 286.33 5.48588C286.33 5.24845 286.424 5.02069 286.592 4.85252C286.76 4.68434 286.987 4.58945 287.224 4.58863H299.337C299.455 4.58822 299.572 4.61113 299.682 4.65603C299.791 4.70094 299.89 4.76697 299.974 4.85033C300.057 4.93369 300.124 5.03273 300.169 5.14179C300.214 5.25086 300.238 5.36779 300.238 5.48588C300.238 5.60397 300.214 5.7209 300.169 5.82996C300.124 5.93902 300.057 6.03807 299.974 6.12142C299.89 6.20478 299.791 6.27081 299.682 6.31572C299.572 6.36063 299.455 6.38353 299.337 6.38312Z" fill="#839F9F"/>
<path d="M299.337 9.74788H287.224C286.987 9.74706 286.76 9.65216 286.592 9.48398C286.424 9.3158 286.33 9.08805 286.33 8.85062C286.33 8.61319 286.424 8.38545 286.592 8.21727C286.76 8.04909 286.987 7.95419 287.224 7.95337H299.337C299.455 7.95297 299.572 7.97588 299.682 8.02079C299.791 8.0657 299.89 8.13172 299.974 8.21507C300.057 8.29843 300.124 8.39749 300.169 8.50655C300.214 8.61561 300.238 8.73253 300.238 8.85062C300.238 8.96871 300.214 9.08564 300.169 9.1947C300.124 9.30376 300.057 9.40282 299.974 9.48618C299.89 9.56954 299.791 9.63556 299.682 9.68046C299.572 9.72537 299.455 9.74828 299.337 9.74788Z" fill="#839F9F"/>
<path d="M292.578 36.439H9.31201V186.517H292.578V36.439Z" fill="#DDDDDD"/>
<path d="M292.578 64.5311V63.0594H237.437V36.439H235.965V63.0594H180.825V36.439H179.353V63.0594H124.212V36.439H122.74V63.0594H67.5995V36.439H66.1277V63.0594H9.31201V64.5311H66.1277V93.9399H9.31201V95.4117H66.1277V124.82H9.31201V126.292H66.1277V155.696H9.31201V157.167H66.1277V186.517H67.5995V157.167H122.74V186.517H124.212V157.167H179.353V186.517H180.825V157.167H235.965V186.517H237.437V157.167H292.578V155.696H237.437V126.292H292.578V124.82H237.437V95.4117H292.578V93.9399H237.437V64.5312L292.578 64.5311ZM122.74 155.696H67.5995V126.292H122.74V155.696ZM122.74 124.82H67.5995V95.4117H122.74V124.82ZM122.74 93.9399H67.5995V64.5312H122.74V93.9399ZM179.353 155.696H124.212V126.292H179.353V155.696ZM179.353 124.82H124.212V95.4117H179.353V124.82ZM179.353 93.94H124.212V64.5312H179.353V93.94ZM235.965 155.696H180.825V126.292H235.965V155.696ZM235.965 124.82H180.825V95.4117H235.965V124.82ZM235.965 93.94H180.825V64.5312H235.965V93.94Z" fill="white"/>
<path d="M97.5195 71.6832H78.5688V90.0297H97.5195V71.6832Z" fill="#ABABAB"/>
<path d="M271.992 131.089H253.041V149.436H271.992V131.089Z" fill="#ABABAB"/>
<path d="M103.407 161.595H84.4559V179.942H103.407V161.595Z" fill="#ABABAB"/>
<path d="M109.007 68.2794H90.0566V86.6259H109.007V68.2794Z" fill="#839F9F"/>
<path d="M198.09 144.542L220.579 124.506L227.213 127.793L200.241 156.083L198.09 144.542Z" fill="#FFB6B6"/>
<path d="M223.538 131.393C226.494 131.393 228.89 128.996 228.89 126.041C228.89 123.085 226.494 120.689 223.538 120.689C220.582 120.689 218.186 123.085 218.186 126.041C218.186 128.996 220.582 131.393 223.538 131.393Z" fill="#FFB6B6"/>
<path d="M177.041 295.348H171.719L169.188 274.824L177.041 274.824L177.041 295.348Z" fill="#FFB6B6"/>
<path d="M178.398 300.506L161.24 300.506V300.289C161.24 298.518 161.944 296.819 163.196 295.567C164.449 294.314 166.147 293.611 167.918 293.611L178.398 293.611L178.398 300.506Z" fill="#2F2E41"/>
<path d="M157.774 295.348H152.452L149.921 274.824L157.774 274.824L157.774 295.348Z" fill="#FFB6B6"/>
<path d="M159.131 300.506L141.973 300.506V300.289C141.973 298.518 142.677 296.819 143.929 295.567C145.182 294.314 146.88 293.611 148.651 293.611L159.131 293.611L159.131 300.506Z" fill="#2F2E41"/>
<path d="M181.51 178.025C181.51 178.025 194.889 176.955 190.608 200.504C186.326 224.052 177.458 288.468 177.458 288.468L169.417 289.573L164.667 203.643L161.073 289.573L150.847 288.468L140.835 196.222C140.835 196.222 137.62 188.805 140.833 183.683C144.046 178.561 181.51 178.025 181.51 178.025Z" fill="#2F2E41"/>
<path d="M172.947 119.69L176.661 117.699C176.661 117.699 185.814 116.919 189.549 127.67L199.455 142.632L215.51 128.717L222.468 133.533L202.233 157.684L193.819 158.759L175.623 135.21L172.947 119.69Z" fill="#839F9F"/>
<path d="M159.467 76.2679C144.205 76.2679 139.932 93.0338 139.932 102.492C139.932 111.951 148.678 110.52 159.467 110.52C164.098 110.52 168.349 110.782 171.697 110.335L173.307 106.403L174.603 109.661C177.351 108.651 179.001 106.598 179.001 102.492C179.001 93.0338 175.255 76.2679 159.467 76.2679Z" fill="#2F2E41"/>
<path d="M159.402 110.504C166.661 110.504 172.547 104.619 172.547 97.3594C172.547 90.0998 166.661 84.2146 159.402 84.2146C152.142 84.2146 146.257 90.0998 146.257 97.3594C146.257 104.619 152.142 110.504 159.402 110.504Z" fill="#FFB6B6"/>
<path d="M144.214 96.07H149.413L151.707 89.6477L152.165 96.07H154.65L155.988 92.3237L156.256 96.07H174.72C174.72 92.3795 173.254 88.8402 170.644 86.2306C168.035 83.6211 164.495 82.155 160.805 82.155H158.129C154.438 82.155 150.899 83.6211 148.29 86.2306C145.68 88.8402 144.214 92.3795 144.214 96.07Z" fill="#2F2E41"/>
<path d="M232.101 105.743H213.151V124.089H232.101V105.743Z" fill="#839F9F"/>
<path d="M185.669 173.183C183.65 173.209 177.571 137.138 177.571 137.138L176.661 117.699L170.019 117.476V117.039C170.019 116.162 169.67 115.321 169.05 114.7C168.43 114.08 167.588 113.731 166.711 113.731H154.06C153.22 113.732 152.411 114.052 151.799 114.628C151.186 115.203 150.816 115.99 150.763 116.829L145.554 116.654L136.533 145.315C136.533 145.315 144.845 171.947 140.833 183.683C140.833 183.683 179.923 187.04 187.406 179.589C187.406 179.589 187.687 173.157 185.669 173.183Z" fill="#839F9F"/>
<path d="M147.793 120.225L145.554 116.654C145.554 116.654 138.27 114.853 135.271 119.68C132.272 124.506 123.457 150.659 123.457 150.659L132.556 153.871L142.88 139.396L147.793 120.225Z" fill="#839F9F"/>
<path d="M170.554 138.925H151.604V157.271H170.554V138.925Z" fill="#839F9F"/>
<path d="M137.064 145.556L130.471 144.858C130.055 145.746 129.846 146.717 129.86 147.698C129.875 148.679 130.112 149.644 130.554 150.519C130.996 151.395 131.632 152.158 132.413 152.752C133.194 153.346 134.099 153.754 135.061 153.946L161.148 159.152L158.427 150.772L137.064 145.556Z" fill="#FFB6B6"/>
<path d="M161.227 159.249C164.183 159.249 166.579 156.853 166.579 153.897C166.579 150.941 164.183 148.545 161.227 148.545C158.271 148.545 155.875 150.941 155.875 153.897C155.875 156.853 158.271 159.249 161.227 159.249Z" fill="#FFB6B6"/>
<path d="M154.546 159.412L134.672 154.87C133.232 154.537 131.902 153.838 130.811 152.84C129.721 151.843 128.906 150.58 128.446 149.176L127.643 146.699L132.801 142.64L156.431 149.245L154.546 159.412Z" fill="#839F9F"/>
<path d="M266.225 301.583H62.3171C62.1751 301.583 62.039 301.527 61.9386 301.427C61.8383 301.326 61.7819 301.19 61.7819 301.048C61.7819 300.906 61.8383 300.77 61.9386 300.67C62.039 300.569 62.1751 300.513 62.3171 300.513H266.225C266.367 300.513 266.503 300.569 266.603 300.67C266.704 300.77 266.76 300.906 266.76 301.048C266.76 301.19 266.704 301.326 266.603 301.427C266.503 301.527 266.367 301.583 266.225 301.583Z" fill="#ABABAB"/>
</g>
<defs>
<clipPath id="clip0_18_632">
<rect width="310" height="301.583" fill="white"/>
</clipPath>
</defs>
</svg>
