<svg width="310" height="225" viewBox="0 0 310 225" fill="none" xmlns="http://www.w3.org/2000/svg">
<g clip-path="url(#clip0_20_2138)">
<path d="M45.9573 158.88C45.7029 158.495 45.3673 158.17 44.9739 157.929C44.5805 157.688 44.1391 157.536 43.6806 157.483C43.2221 157.431 42.7577 157.48 42.3202 157.627C41.8827 157.773 41.4826 158.014 41.1483 158.332L31.1807 153.188L31.8003 158.983L41.1707 162.98C41.7422 163.507 42.4869 163.805 43.2637 163.819C44.0405 163.833 44.7954 163.562 45.3854 163.056C45.9754 162.551 46.3595 161.846 46.4649 161.077C46.5703 160.307 46.3897 159.525 45.9573 158.88Z" fill="#A0616A"/>
<path d="M37.0989 161.213C36.9185 161.295 36.7228 161.339 36.5244 161.341C36.3259 161.344 36.1293 161.304 35.9472 161.225L26.4794 157.118C23.2422 155.714 20.625 153.182 19.1148 149.993L14.1373 139.487C13.77 139.015 13.4993 138.475 13.3407 137.899C13.1821 137.322 13.1387 136.72 13.213 136.126C13.2873 135.533 13.4779 134.96 13.7738 134.44C14.0697 133.921 14.4651 133.464 14.9375 133.098C15.4099 132.731 15.9499 132.461 16.5267 132.303C17.1035 132.145 17.7058 132.102 18.2991 132.177C18.8925 132.252 19.4651 132.444 19.9845 132.74C20.5038 133.037 20.9596 133.433 21.3258 133.906L30.0749 150.138L38.1536 156.241C38.3849 156.416 38.5566 156.659 38.6457 156.935C38.7348 157.211 38.7369 157.508 38.6517 157.786L37.8587 160.347C37.7736 160.621 37.6067 160.864 37.3804 161.041C37.2937 161.109 37.1992 161.167 37.0989 161.213Z" fill="#CCCCCC"/>
<path d="M13.9184 127.131C18.1763 127.131 21.628 123.679 21.628 119.421C21.628 115.163 18.1763 111.711 13.9184 111.711C9.66045 111.711 6.20874 115.163 6.20874 119.421C6.20874 123.679 9.66045 127.131 13.9184 127.131Z" fill="#A0616A"/>
<path d="M17.0412 220.557L20.8893 220.557L22.7202 205.714L17.0403 205.714L17.0412 220.557Z" fill="#A0616A"/>
<path d="M28.311 224.13L16.2164 224.131L16.2162 219.458L23.6379 219.458C24.8772 219.457 26.0658 219.95 26.9422 220.826C27.8186 221.702 28.311 222.891 28.311 224.13Z" fill="#2F2E41"/>
<path d="M4.48532 220.557L8.33337 220.557L10.1643 205.714L4.48438 205.714L4.48532 220.557Z" fill="#A0616A"/>
<path d="M15.7554 224.13L3.66071 224.131L3.6605 219.458L11.0822 219.458C12.3216 219.457 13.5102 219.95 14.3865 220.826C15.2629 221.702 15.7553 222.891 15.7554 224.13Z" fill="#2F2E41"/>
<path d="M3.14134 216.309C3.00874 216.157 2.91003 215.979 2.85184 215.787C2.79364 215.594 2.77729 215.391 2.8039 215.192L9.54155 164.659L26.2812 167.502L28.0677 166.43L23.448 214.376C23.4095 214.699 23.2606 215 23.0264 215.226C22.7922 215.453 22.4869 215.592 22.1622 215.62L17.0935 216.042C16.892 216.059 16.6892 216.032 16.4988 215.964C16.3085 215.896 16.1351 215.787 15.9902 215.646C15.8454 215.505 15.7326 215.335 15.6594 215.146C15.5862 214.958 15.5543 214.756 15.5659 214.554L16.8782 191.72C16.8805 191.681 16.8684 191.643 16.8441 191.613C16.8198 191.582 16.7851 191.562 16.7468 191.556C16.7084 191.55 16.6691 191.558 16.6365 191.579C16.6038 191.6 16.5801 191.632 16.57 191.67L10.0776 215.746C9.99645 216.045 9.81895 216.31 9.5725 216.499C9.32604 216.688 9.02432 216.79 8.71384 216.791H4.20411C4.00283 216.791 3.80387 216.748 3.62058 216.665C3.43728 216.581 3.27388 216.46 3.14134 216.309Z" fill="#2F2E41"/>
<path d="M14.7345 168.196C14.5423 168.022 14.2953 167.921 14.0364 167.91C13.7774 167.899 13.5228 167.979 13.3169 168.137L9.97014 170.74C9.78802 170.882 9.57381 170.977 9.34632 171.017C9.11883 171.057 8.885 171.041 8.66537 170.969C8.44573 170.898 8.247 170.773 8.0866 170.607C7.92621 170.441 7.80906 170.238 7.74543 170.016C6.10383 164.267 2.38459 149.795 3.30084 139.61C3.8202 133.837 8.80567 129.449 14.4143 129.817C18.2488 130.073 20.7714 132.284 21.9121 136.391C24.7128 146.474 27.7908 164.97 28.3794 168.575C28.4258 168.855 28.3866 169.142 28.267 169.399C28.1473 169.656 27.9527 169.871 27.7087 170.016C26.1253 170.966 24.3161 171.475 22.4692 171.49C20.2345 171.49 17.5551 170.712 14.7345 168.196Z" fill="#CCCCCC"/>
<path d="M15.9971 171.783C16.0346 171.323 15.9708 170.86 15.8101 170.428C15.6495 169.995 15.396 169.603 15.0674 169.279C14.7389 168.955 14.3432 168.707 13.9084 168.552C13.4737 168.398 13.0103 168.34 12.5509 168.384L7.88268 158.185L4.79346 163.128L9.70008 172.056C9.82495 172.822 10.2268 173.517 10.8294 174.007C11.432 174.497 12.1936 174.75 12.9698 174.716C13.7459 174.682 14.4828 174.365 15.0408 173.825C15.5988 173.284 15.939 172.557 15.9971 171.783Z" fill="#A0616A"/>
<path d="M7.58717 168.152C7.3942 168.106 7.21311 168.019 7.05567 167.899C6.89824 167.778 6.76798 167.625 6.67338 167.451L1.75802 158.376C0.0770343 155.274 -0.419841 151.667 0.359814 148.225L2.92701 136.886C2.92933 136.288 3.04949 135.697 3.2806 135.145C3.51171 134.594 3.84924 134.093 4.27391 133.672C4.69857 133.251 5.20203 132.918 5.75552 132.692C6.30901 132.466 6.90166 132.351 7.4996 132.354C8.09754 132.357 8.68904 132.477 9.24029 132.709C9.79154 132.941 10.2917 133.279 10.7123 133.704C11.1328 134.129 11.4654 134.633 11.6911 135.186C11.9168 135.74 12.0312 136.333 12.0277 136.931L8.89456 155.103L11.4854 164.891C11.559 165.171 11.5447 165.468 11.4443 165.74C11.3438 166.013 11.1622 166.248 10.9239 166.413L8.71943 167.939C8.48294 168.103 8.20222 168.191 7.91469 168.19C7.80438 168.191 7.69444 168.178 7.58717 168.152Z" fill="#CCCCCC"/>
<path opacity="0.2" d="M11.4022 144.594L8.57715 156.523L12.6578 166.567L9.83273 156.836L11.4022 144.594Z" fill="black"/>
<path d="M9.5188 125.761C8.83301 125.774 8.15149 125.65 7.51363 125.398C7.23297 125.29 6.94163 125.201 6.66149 125.093C4.18746 124.137 2.55772 121.502 2.49935 118.85C2.44098 116.199 3.81416 113.625 5.85322 111.929C7.89227 110.233 10.5334 109.362 13.178 109.161C16.0267 108.944 19.2344 109.666 20.8262 112.039C21.2499 112.67 21.5462 113.436 21.2951 114.199C21.2199 114.429 21.0856 114.635 20.9057 114.797C20.1948 115.43 19.4861 114.954 18.7614 114.912C17.7653 114.854 16.8707 115.66 16.5491 116.605C16.2276 117.549 16.3691 118.589 16.6287 119.553C16.8265 120.132 16.9512 120.734 16.9999 121.345C17.0209 121.651 16.9633 121.958 16.8326 122.235C16.702 122.513 16.5026 122.753 16.2533 122.932C15.6309 123.308 14.8135 123.09 14.1907 122.715C13.5679 122.339 13.0298 121.817 12.3571 121.54C11.6843 121.264 10.7805 121.325 10.389 121.938C10.2645 122.161 10.1803 122.404 10.1402 122.656C9.78914 124.256 9.86982 124.162 9.5188 125.761Z" fill="#2F2E41"/>
<path d="M237.724 72.3468H47.1894C46.4636 72.3474 45.7678 72.636 45.2546 73.1492C44.7414 73.6624 44.4528 74.3582 44.4521 75.084V204.196C44.4528 204.922 44.7414 205.617 45.2546 206.131C45.7678 206.644 46.4636 206.932 47.1894 206.933H237.724C238.12 206.933 238.511 206.847 238.871 206.681C239.23 206.515 239.549 206.274 239.806 205.972C239.827 205.949 239.847 205.924 239.865 205.897C240.029 205.697 240.161 205.474 240.258 205.235C240.395 204.906 240.466 204.553 240.465 204.196V123.823H239.683V204.196C239.683 204.578 239.571 204.951 239.36 205.269C239.172 205.549 238.917 205.778 238.619 205.935C238.342 206.078 238.036 206.152 237.724 206.151H47.1894C46.6709 206.151 46.1738 205.945 45.8072 205.578C45.4406 205.211 45.2343 204.714 45.2337 204.196V75.084C45.2343 74.5655 45.4406 74.0684 45.8072 73.7018C46.1738 73.3352 46.6709 73.129 47.1894 73.1284H237.724C238.243 73.1284 238.741 73.3343 239.108 73.7009C239.476 74.0676 239.682 74.565 239.683 75.084V92.433H240.465V75.084C240.464 74.3578 240.175 73.6615 239.661 73.1483C239.147 72.6351 238.451 72.3468 237.724 72.3468Z" fill="#3F3D56"/>
<path d="M240.072 83.3184H44.8416V84.1008H240.072V83.3184Z" fill="#3F3D56"/>
<path d="M51.4927 80.5641C52.7892 80.5641 53.8402 79.5131 53.8402 78.2166C53.8402 76.9201 52.7892 75.8691 51.4927 75.8691C50.1963 75.8691 49.1453 76.9201 49.1453 78.2166C49.1453 79.5131 50.1963 80.5641 51.4927 80.5641Z" fill="#CCCCCC"/>
<path d="M58.2417 80.5641C59.5382 80.5641 60.5892 79.5131 60.5892 78.2166C60.5892 76.9201 59.5382 75.8691 58.2417 75.8691C56.9453 75.8691 55.8943 76.9201 55.8943 78.2166C55.8943 79.5131 56.9453 80.5641 58.2417 80.5641Z" fill="#CCCCCC"/>
<path d="M64.9905 80.5641C66.287 80.5641 67.338 79.5131 67.338 78.2166C67.338 76.9201 66.287 75.8691 64.9905 75.8691C63.6941 75.8691 62.6431 76.9201 62.6431 78.2166C62.6431 79.5131 63.6941 80.5641 64.9905 80.5641Z" fill="#CCCCCC"/>
<path d="M112.141 191.108C111.333 191.104 110.539 190.899 109.83 190.511C109.121 190.123 108.521 189.564 108.082 188.885C107.644 188.206 107.382 187.429 107.32 186.623C107.257 185.817 107.397 185.009 107.726 184.271L113.319 171.793C108.914 167.898 105.389 163.109 102.979 157.746C100.568 152.382 99.3268 146.567 99.3372 140.687C99.3372 117.715 118.027 99.0249 141 99.0249C163.973 99.0249 182.662 117.715 182.662 140.687C182.662 163.66 163.973 182.35 141 182.35C136.981 182.346 132.984 181.757 129.135 180.602L114.862 190.265C114.06 190.812 113.112 191.106 112.141 191.108ZM141 104.838C133.565 104.834 126.313 107.143 120.249 111.445C114.185 115.747 109.609 121.828 107.156 128.847C104.704 135.866 104.495 143.474 106.56 150.616C108.625 157.759 112.86 164.082 118.68 168.71L120.441 170.115L114.424 183.541L128.233 174.193L129.596 174.651C134.522 176.305 139.748 176.869 144.913 176.303C150.079 175.737 155.059 174.055 159.509 171.373C163.96 168.691 167.773 165.073 170.687 160.77C173.6 156.468 175.542 151.583 176.38 146.455C177.218 141.327 176.93 136.078 175.538 131.072C174.145 126.066 171.68 121.423 168.315 117.464C164.949 113.505 160.763 110.325 156.047 108.145C151.33 105.965 146.196 104.837 141 104.838Z" fill="#839F9F"/>
<path d="M141 144.563C144.21 144.563 146.813 141.96 146.813 138.75C146.813 135.539 144.21 132.936 141 132.936C137.789 132.936 135.186 135.539 135.186 138.75C135.186 141.96 137.789 144.563 141 144.563Z" fill="#839F9F"/>
<path d="M124.528 144.563C127.739 144.563 130.342 141.96 130.342 138.75C130.342 135.539 127.739 132.936 124.528 132.936C121.318 132.936 118.715 135.539 118.715 138.75C118.715 141.96 121.318 144.563 124.528 144.563Z" fill="#839F9F"/>
<path d="M157.471 144.563C160.681 144.563 163.284 141.96 163.284 138.75C163.284 135.539 160.681 132.936 157.471 132.936C154.26 132.936 151.657 135.539 151.657 138.75C151.657 141.96 154.26 144.563 157.471 144.563Z" fill="#839F9F"/>
<path d="M287.188 115.74H231.942C231.276 115.74 230.637 115.476 230.166 115.005C229.695 114.534 229.431 113.895 229.431 113.229C229.431 112.563 229.695 111.925 230.166 111.454C230.637 110.983 231.276 110.718 231.942 110.718H287.188C287.854 110.718 288.492 110.983 288.963 111.454C289.434 111.925 289.699 112.563 289.699 113.229C289.699 113.895 289.434 114.534 288.963 115.005C288.492 115.476 287.854 115.74 287.188 115.74Z" fill="#CCCCCC"/>
<path d="M251.09 105.068H231.942C231.276 105.068 230.637 104.803 230.166 104.332C229.695 103.862 229.431 103.223 229.431 102.557C229.431 101.891 229.695 101.252 230.166 100.781C230.637 100.31 231.276 100.046 231.942 100.046H251.09C251.756 100.046 252.394 100.31 252.865 100.781C253.336 101.252 253.601 101.891 253.601 102.557C253.601 103.223 253.336 103.862 252.865 104.332C252.394 104.803 251.756 105.068 251.09 105.068Z" fill="#CCCCCC"/>
<path d="M206.919 118.8C212.813 118.8 217.592 114.022 217.592 108.128C217.592 102.234 212.813 97.4554 206.919 97.4554C201.025 97.4554 196.247 102.234 196.247 108.128C196.247 114.022 201.025 118.8 206.919 118.8Z" fill="#839F9F"/>
<path d="M292.725 91.8053H193.22C191.805 91.8073 190.449 92.3701 189.449 93.3704C188.449 94.3708 187.886 95.7269 187.884 97.1415V119.114C187.886 120.529 188.449 121.885 189.449 122.885C190.449 123.886 191.805 124.449 193.22 124.451H292.725C294.14 124.449 295.496 123.886 296.496 122.885C297.497 121.885 298.059 120.529 298.061 119.114V97.1415C298.059 95.7269 297.497 94.3708 296.496 93.3704C295.496 92.3701 294.14 91.8073 292.725 91.8053ZM297.434 119.114C297.432 120.363 296.936 121.559 296.053 122.442C295.17 123.325 293.973 123.821 292.725 123.823H193.22C191.972 123.821 190.775 123.325 189.892 122.442C189.01 121.559 188.513 120.363 188.512 119.114V97.1415C188.513 95.8932 189.01 94.6965 189.892 93.8138C190.775 92.9312 191.972 92.4346 193.22 92.4331H292.725C293.973 92.4346 295.17 92.9312 296.053 93.8138C296.936 94.6965 297.432 95.8932 297.434 97.1415V119.114Z" fill="#3F3D56"/>
<path d="M297.434 100.594C301.421 100.594 304.653 97.3621 304.653 93.3748C304.653 89.3875 301.421 86.1552 297.434 86.1552C293.446 86.1552 290.214 89.3875 290.214 93.3748C290.214 97.3621 293.446 100.594 297.434 100.594Z" fill="#839F9F"/>
<path d="M297.212 97.435C297.183 97.4059 297.159 97.3713 297.144 97.3332C297.128 97.2951 297.12 97.2543 297.12 97.213V89.2225C297.12 89.1393 297.153 89.0595 297.212 89.0006C297.271 88.9418 297.35 88.9087 297.434 88.9087C297.517 88.9087 297.597 88.9418 297.656 89.0006C297.715 89.0595 297.748 89.1393 297.748 89.2225V97.213C297.748 97.2751 297.729 97.3358 297.695 97.3874C297.66 97.439 297.611 97.4793 297.554 97.503C297.497 97.5268 297.433 97.533 297.373 97.5209C297.312 97.5088 297.256 97.4789 297.212 97.435Z" fill="white"/>
<path d="M293.216 93.4398C293.173 93.3959 293.143 93.3399 293.131 93.279C293.118 93.2182 293.125 93.1551 293.148 93.0977C293.172 93.0404 293.212 92.9913 293.264 92.9568C293.316 92.9223 293.376 92.9039 293.438 92.9039H301.429C301.512 92.9039 301.592 92.937 301.651 92.9959C301.71 93.0547 301.743 93.1346 301.743 93.2178C301.743 93.301 301.71 93.3809 301.651 93.4397C301.592 93.4986 301.512 93.5317 301.429 93.5317H293.438C293.397 93.5317 293.356 93.5236 293.318 93.5079C293.28 93.4921 293.246 93.4689 293.216 93.4398Z" fill="white"/>
<path d="M306.076 189.335H291.006C291.006 189.768 275.475 190.12 275.475 190.12C275.231 190.303 275.009 190.514 274.812 190.747C274.222 191.451 273.9 192.34 273.902 193.259V193.886C273.902 194.927 274.316 195.925 275.052 196.661C275.787 197.396 276.785 197.81 277.826 197.81H306.076C307.117 197.809 308.114 197.396 308.85 196.66C309.585 195.924 309.999 194.927 310 193.886V193.259C309.999 192.218 309.585 191.221 308.849 190.486C308.114 189.75 307.116 189.336 306.076 189.335Z" fill="#3F3D56"/>
<path d="M294.147 197.654H290.066V224.021H294.147V197.654Z" fill="#3F3D56"/>
<path d="M305.761 223.878C305.761 224.319 299.577 224.049 291.949 224.049C284.322 224.049 278.138 224.319 278.138 223.878C278.138 223.437 284.322 219.941 291.949 219.941C299.577 219.941 305.761 223.437 305.761 223.878Z" fill="#3F3D56"/>
<path d="M293.416 154C298.27 154 302.205 150.065 302.205 145.211C302.205 140.357 298.27 136.422 293.416 136.422C288.561 136.422 284.626 140.357 284.626 145.211C284.626 150.065 288.561 154 293.416 154Z" fill="#2F2E41"/>
<path d="M271.543 220.41L267.695 220.41L265.864 205.566L271.544 205.567L271.543 220.41Z" fill="#FFB8B8"/>
<path d="M264.946 219.31H272.368V223.983H260.273C260.273 222.744 260.765 221.555 261.642 220.679C262.518 219.803 263.707 219.31 264.946 219.31Z" fill="#2F2E41"/>
<path d="M265.536 218.262L261.864 217.11L264.561 202.399L269.98 204.1L265.536 218.262Z" fill="#FFB8B8"/>
<path d="M259.571 215.238L266.652 217.46L265.253 221.919L253.713 218.297C254.084 217.115 254.91 216.128 256.008 215.554C257.107 214.981 258.388 214.867 259.571 215.238Z" fill="#2F2E41"/>
<path d="M295.77 186.762C295.681 186.014 295.521 185.276 295.293 184.558L294.574 183.654L292.703 181.306L292.622 181.309C292.483 181.316 291.909 181.347 291.021 181.416H291.011C290.462 181.46 289.79 181.517 289.027 181.589C288.826 181.611 288.616 181.63 288.4 181.652V184.929H292.323C292.514 184.929 292.698 184.998 292.841 185.124C292.985 185.25 293.077 185.424 293.102 185.613C293.105 185.647 293.108 185.679 293.108 185.713C293.108 185.921 293.025 186.121 292.878 186.268C292.731 186.415 292.531 186.498 292.323 186.498H269.534C269.244 186.691 268.965 186.901 268.699 187.126C267.897 187.747 267.318 188.613 267.051 189.593C265.721 195.444 263.294 206.355 262.578 209.56C262.527 209.802 262.538 210.052 262.613 210.288C262.687 210.523 262.821 210.736 263.002 210.904C263.136 211.028 263.293 211.125 263.464 211.189L266.295 212.25C266.411 212.293 266.533 212.322 266.656 212.335C266.672 212.335 266.684 212.338 266.7 212.338C266.729 212.341 266.759 212.342 266.788 212.341C267.074 212.34 267.353 212.253 267.589 212.09C267.825 211.928 268.006 211.698 268.109 211.431L270.344 205.567L273.788 196.527L275.15 192.952C276.729 193.322 289.975 196.254 294.411 191.53C294.848 191.064 295.193 190.52 295.428 189.926C295.801 188.916 295.919 187.829 295.77 186.762Z" fill="#2F2E41"/>
<path d="M299.612 187.616C299.543 187.336 299.465 187.047 299.374 186.756L296.784 183.504L296.702 183.507C296.539 183.516 295.764 183.557 294.574 183.654C293.224 183.767 291.338 183.949 289.219 184.235C289.156 184.241 289.09 184.251 289.028 184.26C288.82 184.288 288.61 184.317 288.4 184.348V184.929H292.323C292.514 184.929 292.698 184.998 292.841 185.124C292.985 185.25 293.077 185.424 293.102 185.613C293.105 185.647 293.108 185.679 293.108 185.713C293.108 185.921 293.025 186.121 292.878 186.268C292.731 186.415 292.532 186.498 292.323 186.498H278.455C277.85 186.696 277.266 186.903 276.707 187.126C273.775 188.287 271.581 189.81 271.132 191.79C270.982 192.456 270.815 193.187 270.639 193.966C269.987 196.86 269.192 200.404 268.474 203.624V203.627C268.326 204.293 268.179 204.94 268.037 205.567C267.438 208.267 266.929 210.555 266.659 211.757C266.653 211.792 266.647 211.823 266.64 211.858V211.864C266.609 212.107 266.639 212.354 266.728 212.583L266.731 212.586V212.589C266.818 212.808 266.958 213.001 267.14 213.151C267.261 213.251 267.398 213.331 267.545 213.386L270.376 214.447C270.534 214.506 270.7 214.537 270.869 214.538C271.105 214.539 271.337 214.48 271.543 214.366C271.84 214.205 272.07 213.943 272.19 213.628L278.286 197.632L279.231 195.149C280.81 195.519 294.056 198.448 298.491 193.727C299.368 192.779 299.868 191.543 299.898 190.252C299.929 189.364 299.833 188.476 299.612 187.616Z" fill="#2F2E41"/>
<path d="M299.263 159.924C299.213 159.864 299.16 159.804 299.103 159.748C298.267 158.869 297.235 158.201 296.091 157.797C294.947 157.394 293.723 157.268 292.521 157.428C291.472 157.566 290.433 157.77 289.41 158.04C288.089 158.38 286.88 159.058 285.901 160.008C285.139 160.748 284.538 161.637 284.138 162.621C283.737 163.604 283.546 164.66 283.575 165.721C283.587 166.151 283.591 166.591 283.584 167.037C283.584 167.244 283.581 167.454 283.578 167.664H286.673C286.807 167.664 286.941 167.68 287.072 167.711C287.449 167.802 287.786 168.016 288.027 168.321C288.267 168.626 288.399 169.002 288.4 169.391V183.993C288.61 184.053 288.82 184.113 289.027 184.175C289.093 184.197 289.156 184.216 289.219 184.235C289.291 184.257 289.363 184.279 289.432 184.301C290.069 184.499 290.692 184.708 291.3 184.929H292.323C292.514 184.929 292.698 184.998 292.841 185.124C292.984 185.25 293.077 185.424 293.102 185.613C293.315 185.698 293.522 185.782 293.726 185.867C294.451 186.169 295.139 186.47 295.77 186.762C296.621 187.151 297.377 187.521 298.011 187.845C298.21 187.946 298.431 188 298.655 188.002C298.948 188.001 299.234 187.906 299.471 187.732C299.52 187.695 299.567 187.657 299.612 187.616C299.78 187.458 299.907 187.262 299.982 187.044C300.057 186.827 300.077 186.594 300.042 186.366C299.718 183.901 299.623 181.41 299.759 178.927C299.847 176.839 300.036 174.699 300.281 172.63C300.412 171.51 300.56 170.411 300.714 169.353C300.861 168.342 301.018 167.372 301.172 166.456C301.374 165.294 301.307 164.101 300.976 162.968C300.645 161.836 300.059 160.794 299.263 159.924Z" fill="#839F9F"/>
<path d="M286.397 160.181C286.236 160.112 286.07 160.054 285.901 160.008C285.064 159.783 284.175 159.866 283.395 160.243C282.614 160.619 281.995 161.263 281.651 162.058L279.494 167.037L279.224 167.664H286.673C286.807 167.664 286.941 167.68 287.072 167.711L287.323 167.131L288.277 164.927C288.656 164.048 288.671 163.055 288.319 162.165C287.966 161.276 287.275 160.562 286.397 160.181Z" fill="#839F9F"/>
<path d="M293.094 154.977C297.352 154.977 300.804 151.525 300.804 147.267C300.804 143.01 297.352 139.558 293.094 139.558C288.836 139.558 285.385 143.01 285.385 147.267C285.385 151.525 288.836 154.977 293.094 154.977Z" fill="#FFB8B8"/>
<path d="M285.246 143.48C288.898 145.709 293.015 147.065 297.276 147.444L296.008 145.924C296.932 146.266 297.903 146.459 298.887 146.496C299.869 146.481 300.899 146.102 301.457 145.293C301.705 144.891 301.853 144.434 301.887 143.963C301.921 143.491 301.841 143.018 301.653 142.584C301.266 141.719 300.665 140.967 299.906 140.399C298.56 139.335 296.971 138.62 295.282 138.318C293.593 138.016 291.855 138.137 290.224 138.669C289.105 139.004 288.102 139.646 287.332 140.524C286.601 141.426 285.194 142.229 285.568 143.328L285.246 143.48Z" fill="#2F2E41"/>
<path d="M294.391 137.258C291.959 134.792 289.016 132.889 285.77 131.683C283.686 130.911 281.418 130.435 279.239 130.873C277.061 131.311 275.001 132.818 274.393 134.956C273.896 136.704 274.409 138.586 275.18 140.231C275.952 141.877 276.981 143.402 277.605 145.109C278.241 146.851 278.433 148.724 278.162 150.558C277.891 152.392 277.166 154.129 276.053 155.613C274.94 157.096 273.475 158.277 271.789 159.05C270.104 159.823 268.252 160.163 266.402 160.039C268.543 160.326 270.516 161.332 272.608 161.867C274.701 162.403 277.17 162.366 278.725 160.867C280.37 159.281 280.403 156.703 280.323 154.419C280.205 151.024 280.087 147.63 279.969 144.235C279.908 142.503 279.857 140.717 280.481 139.101C281.106 137.485 282.59 136.07 284.322 136.085C285.635 136.096 286.797 136.891 287.85 137.675C288.902 138.46 290.017 139.297 291.325 139.413C292.632 139.53 294.125 138.562 294.028 137.253L294.391 137.258Z" fill="#2F2E41"/>
<path d="M300.714 169.353L296.313 169.472L295.993 172.564L295.921 173.28L289.027 176.375L288.4 176.658V182.16L289.027 181.981L291.011 181.416H291.021L299.76 178.927L299.86 178.899C300.566 178.695 301.188 178.269 301.632 177.683C302.077 177.098 302.32 176.385 302.327 175.65L302.349 171.999L302.368 169.309L300.714 169.353Z" fill="#FFB8B8"/>
<path d="M302.145 163.238C302.087 162.283 301.651 161.389 300.933 160.755C300.216 160.121 299.276 159.797 298.32 159.856C297.365 159.915 296.471 160.351 295.837 161.068C295.203 161.785 294.879 162.725 294.938 163.681L295.418 171.516C295.431 171.722 295.49 171.923 295.589 172.104C295.688 172.285 295.826 172.442 295.993 172.564C296.258 172.762 296.585 172.859 296.916 172.837L300.281 172.63L301.301 172.567C301.487 172.558 301.669 172.512 301.836 172.43C302.003 172.349 302.152 172.234 302.274 172.093C302.301 172.064 302.326 172.032 302.349 171.999C302.549 171.732 302.647 171.403 302.625 171.07L302.145 163.238Z" fill="#839F9F"/>
<path d="M289.432 184.301H289.028V184.26C288.82 184.288 288.61 184.317 288.4 184.348V184.929H291.3C290.691 184.709 290.069 184.5 289.432 184.301ZM289.432 184.301H289.028V184.26C288.82 184.288 288.61 184.317 288.4 184.348V184.929H291.3C290.691 184.709 290.069 184.5 289.432 184.301ZM292.323 184.301H289.028V169.391C289.026 168.88 288.86 168.384 288.552 167.976C288.245 167.569 287.814 167.272 287.323 167.131C287.112 167.067 286.893 167.035 286.673 167.037H258.737C258.112 167.037 257.514 167.286 257.073 167.727C256.631 168.168 256.383 168.767 256.382 169.391V184.772C256.383 185.396 256.631 185.995 257.072 186.436C257.514 186.878 258.112 187.126 258.737 187.126H292.323C292.671 187.125 293.006 186.997 293.265 186.764C293.524 186.532 293.688 186.213 293.726 185.867C293.733 185.816 293.736 185.765 293.736 185.713C293.735 185.339 293.586 184.98 293.322 184.715C293.057 184.45 292.698 184.301 292.323 184.301ZM293.108 185.713C293.108 185.921 293.025 186.121 292.878 186.268C292.731 186.415 292.532 186.498 292.323 186.498H258.737C258.279 186.498 257.84 186.316 257.516 185.992C257.192 185.668 257.01 185.229 257.01 184.772V169.391C257.01 168.933 257.192 168.494 257.516 168.17C257.84 167.847 258.279 167.665 258.737 167.664H286.673C286.808 167.664 286.941 167.68 287.072 167.711C287.45 167.802 287.786 168.016 288.027 168.321C288.268 168.626 288.399 169.002 288.4 169.391V184.929H292.323C292.514 184.929 292.698 184.998 292.841 185.124C292.985 185.25 293.077 185.424 293.102 185.613C293.105 185.647 293.108 185.679 293.108 185.713ZM289.432 184.301H289.028V184.26C288.82 184.288 288.61 184.317 288.4 184.348V184.929H291.3C290.691 184.709 290.069 184.5 289.432 184.301Z" fill="#3F3D56"/>
<path d="M272.704 178.965C273.744 178.965 274.587 178.122 274.587 177.082C274.587 176.041 273.744 175.198 272.704 175.198C271.664 175.198 270.821 176.041 270.821 177.082C270.821 178.122 271.664 178.965 272.704 178.965Z" fill="#839F9F"/>
<path d="M104.481 22.4021C104.474 22.5455 104.479 22.6893 104.494 22.832L94.6374 31.1044L91.698 30.0401L89.512 34.2663L95.9385 37.3254L106.715 25.2329C107.259 25.3316 107.82 25.2624 108.324 25.0343C108.828 24.8062 109.25 24.4302 109.535 23.9562C109.82 23.4822 109.954 22.9327 109.919 22.3808C109.884 21.8289 109.681 21.3007 109.339 20.8665C108.996 20.4323 108.53 20.1127 108.001 19.9501C107.473 19.7876 106.907 19.7898 106.38 19.9565C105.852 20.1232 105.388 20.4465 105.049 20.8833C104.71 21.3202 104.512 21.8499 104.481 22.4021Z" fill="#FFB8B8"/>
<path d="M91.2616 36.2935L81.7431 32.8578C80.8692 32.5424 80.1565 31.8928 79.7616 31.0519C79.3667 30.2109 79.3221 29.2476 79.6375 28.3737C79.9529 27.4999 80.6026 26.7871 81.4435 26.3922C82.2844 25.9973 83.2478 25.9527 84.1216 26.2681L93.6402 29.7038C93.7844 29.7559 93.9169 29.8358 94.0303 29.9391C94.1436 30.0424 94.2355 30.1669 94.3006 30.3057C94.3658 30.4445 94.403 30.5948 94.4101 30.7479C94.4172 30.9011 94.394 31.0542 94.3419 31.1984L92.7563 35.5917C92.6508 35.8827 92.4342 36.12 92.154 36.2516C91.8738 36.3831 91.5529 36.3982 91.2616 36.2935Z" fill="#CCCCCC"/>
<path d="M84.2907 69.7641L87.4717 69.7637L88.985 57.4935L84.29 57.4938L84.2907 69.7641Z" fill="#FFB8B8"/>
<path d="M93.6067 72.7175L83.6088 72.718L83.6087 68.8552L89.7437 68.8549C90.7682 68.8549 91.7507 69.2618 92.4752 69.9862C93.1996 70.7106 93.6066 71.693 93.6067 72.7175Z" fill="#2F2E41"/>
<path d="M76.4287 65.6546L79.0309 67.4843L87.3266 58.3176L83.486 55.6174L76.4287 65.6546Z" fill="#FFB8B8"/>
<path d="M82.0368 72.8016L73.8582 67.0513L76.08 63.8913L81.0987 67.42C81.9367 68.0092 82.5064 68.9072 82.6823 69.9165C82.8583 70.9258 82.6261 71.9636 82.0368 72.8016Z" fill="#2F2E41"/>
<path d="M91.2513 47.6608C91.2513 47.6608 99.19 46.7242 97.7651 51.8757C96.3402 57.0272 80.4629 61.4762 80.4629 61.4762L91.2513 47.6608Z" fill="#FFB8B8"/>
<path d="M85.7873 21.3753C89.307 21.3753 92.1603 18.522 92.1603 15.0023C92.1603 11.4826 89.307 8.62927 85.7873 8.62927C82.2676 8.62927 79.4143 11.4826 79.4143 15.0023C79.4143 18.522 82.2676 21.3753 85.7873 21.3753Z" fill="#FFB8B8"/>
<path d="M65.4633 60.4213C61.837 56.1987 60.568 49.7181 66.3511 44.3282C67.7793 43.0297 69.3965 41.9557 71.1473 41.143L75.8083 28.1083C76.2924 26.7472 77.1801 25.566 78.3528 24.7224C79.5256 23.8788 80.9277 23.4129 82.3722 23.3868C83.7746 23.3263 85.1614 23.7014 86.3421 24.4607C87.5227 25.22 88.4394 26.3262 88.9661 27.6274C89.5353 28.9511 89.6004 30.4374 89.1492 31.8059C87.7617 36.1267 85.9396 40.2957 83.7109 44.2489L83.9518 46.1769L95.733 47.224L95.623 47.4026C95.5657 47.4959 89.7998 56.2808 82.4237 62.112C79.9016 64.1057 77.2936 64.932 74.8322 64.9317C71.0997 64.9315 67.7048 63.0313 65.4633 60.4213Z" fill="#CCCCCC"/>
<path d="M64.3513 17.0017C65.4788 15.6582 65.9624 13.9008 66.3515 12.1906C66.967 9.48454 67.4434 6.68641 68.8109 4.27157C70.1784 1.85676 72.6916 -0.144147 75.4626 0.00815853C78.2177 0.159595 80.4452 2.37623 81.6275 4.89832C81.9139 4.78713 82.2203 4.73731 82.5271 4.7521C82.834 4.76689 83.1342 4.84596 83.4085 4.98419C84.2607 5.45085 84.5793 6.77725 83.87 7.44126C84.616 7.08601 85.4284 6.89178 86.2545 6.87119C87.0805 6.85059 87.9016 7.0041 88.6645 7.32173C89.6454 7.73932 90.4921 8.41938 91.1114 9.2871C91.7308 10.1548 92.0988 11.1766 92.175 12.2399C92.2047 12.6715 92.1455 13.1046 92.0009 13.5124C91.8564 13.9201 91.6297 14.2939 91.3349 14.6104C90.1121 15.8692 88.3827 15.435 86.8449 15.1144C85.3925 14.8115 83.6234 14.7297 82.8052 16.1136C82.4827 16.6902 82.3925 17.3682 82.5528 18.0091C82.8663 19.3906 83.8891 20.3529 84.8814 21.2738L85.0437 21.5753C81.5401 22.2585 77.7142 19.8658 76.7951 16.4166C75.8761 12.9674 78.0041 8.98821 81.3831 7.83757C81.1582 7.84457 80.9356 7.7914 80.7381 7.68354C80.5406 7.57569 80.3756 7.41707 80.2599 7.22407C80.1443 7.03108 80.0823 6.8107 80.0803 6.58571C80.0783 6.36073 80.1364 6.1393 80.2487 5.94429C79.3133 5.42031 78.2548 5.15622 77.183 5.17942C75.4376 5.29392 73.9271 6.53635 73.0188 8.03115C72.1104 9.52595 71.6991 11.261 71.2824 12.9598C70.8658 14.6586 70.4149 16.3899 69.4436 17.8446C68.7709 18.8522 67.872 19.6886 66.8187 20.2871C65.7653 20.8855 64.5867 21.2295 63.3767 21.2916C62.1668 21.3536 60.9592 21.1321 59.8501 20.6445C58.741 20.1569 57.7613 19.4169 56.989 18.4835C58.2094 19.0752 59.5902 19.2508 60.9198 18.9831C62.2495 18.7155 63.4548 18.0195 64.3513 17.0017Z" fill="#2F2E41"/>
<path d="M111.16 34.3696C116.276 34.3696 120.423 30.2221 120.423 25.1059C120.423 19.9898 116.276 15.8423 111.16 15.8423C106.043 15.8423 101.896 19.9898 101.896 25.1059C101.896 30.2221 106.043 34.3696 111.16 34.3696Z" fill="#839F9F"/>
<path d="M110.875 30.3158C110.837 30.2785 110.808 30.2341 110.787 30.1852C110.767 30.1363 110.757 30.0839 110.757 30.031V19.7782C110.757 19.6714 110.799 19.569 110.875 19.4934C110.95 19.4179 111.053 19.3755 111.16 19.3755C111.266 19.3755 111.369 19.4179 111.444 19.4934C111.52 19.569 111.562 19.6714 111.562 19.7782V30.031C111.562 30.1107 111.539 30.1885 111.494 30.2547C111.45 30.321 111.387 30.3726 111.314 30.4031C111.24 30.4336 111.159 30.4415 111.081 30.426C111.003 30.4105 110.931 30.3721 110.875 30.3158Z" fill="white"/>
<path d="M105.749 25.1894C105.692 25.133 105.654 25.0613 105.638 24.9831C105.623 24.905 105.631 24.824 105.661 24.7505C105.692 24.6769 105.743 24.614 105.81 24.5697C105.876 24.5255 105.954 24.5018 106.033 24.5018H116.286C116.393 24.5018 116.495 24.5443 116.571 24.6198C116.646 24.6953 116.689 24.7978 116.689 24.9046C116.689 25.0114 116.646 25.1138 116.571 25.1893C116.495 25.2649 116.393 25.3073 116.286 25.3073H106.033C105.98 25.3074 105.928 25.297 105.879 25.2768C105.83 25.2565 105.786 25.2268 105.749 25.1894Z" fill="white"/>
<path d="M104.801 31.3022C104.733 31.429 104.676 31.561 104.63 31.6968L92.1914 34.9952L89.983 32.7825L86.208 35.6788L90.725 41.1793L105.619 34.8137C106.069 35.1343 106.607 35.3102 107.16 35.3179C107.713 35.3256 108.255 35.1648 108.714 34.8568C109.174 34.5488 109.529 34.1083 109.731 33.5939C109.934 33.0794 109.976 32.5154 109.85 31.9768C109.725 31.4382 109.438 30.9506 109.029 30.5787C108.62 30.2069 108.107 29.9686 107.559 29.8953C107.01 29.8221 106.453 29.9175 105.96 30.1688C105.468 30.4201 105.063 30.8154 104.801 31.3022Z" fill="#FFB8B8"/>
<path d="M86.9302 38.2574L79.7746 31.1017C79.4484 30.7767 79.1895 30.3905 79.0128 29.9652C78.836 29.54 78.7448 29.0841 78.7444 28.6236C78.744 28.1631 78.8344 27.707 79.0105 27.2815C79.1865 26.8559 79.4447 26.4693 79.7704 26.1437C80.096 25.818 80.4826 25.5598 80.9082 25.3837C81.3337 25.2077 81.7898 25.1173 82.2503 25.1177C82.7108 25.1181 83.1667 25.2093 83.592 25.386C84.0172 25.5628 84.4034 25.8217 84.7285 26.1479L91.8841 33.3035C91.9925 33.4119 92.0786 33.5406 92.1372 33.6823C92.1959 33.8239 92.2261 33.9758 92.2261 34.1291C92.2261 34.2824 92.1959 34.4342 92.1372 34.5759C92.0786 34.7175 91.9925 34.8462 91.8841 34.9546L88.5815 38.2574C88.3624 38.476 88.0654 38.5987 87.7559 38.5987C87.4463 38.5987 87.1494 38.476 86.9302 38.2574Z" fill="#CCCCCC"/>
</g>
<defs>
<clipPath id="clip0_20_2138">
<rect width="310" height="224.131" fill="white"/>
</clipPath>
</defs>
</svg>
